<svg xmlns="http://www.w3.org/2000/svg" viewBox="0 0 492.1 87.6"><defs/><g id="Camada_2" data-name="Camada 2"><g id="Camada_1-2" data-name="Camada 1"><path d="M56.3 37.4a67.2 67.2 0 0 1 1.6 19.9 151 151 0 0 1-26.7-8 67.2 67.2 0 0 1-1.6-19.9c11.4 2.7 25 6.6 26.7 8M43.8 0A43.8 43.8 0 1 1 0 43.8 43.8 43.8 0 0 1 43.8 0m29.5 60c2.2-2 2.2-32.3 0-35.4A191.1 191.1 0 0 0 31.2 14a46 46 0 0 0-1.6 15.4 71 71 0 0 0-15.4-2.7c-2.2 2-2.2 32.3 0 35.4 2.8 2.4 39.3 11.6 42.1 10.6a46 46 0 0 0 1.6-15.4A71 71 0 0 0 73.3 60m88.2-41c10.7 0 19.1 5.8 19.1 20.7v7.7c0 15-8.5 20.7-19.1 20.7s-19.1-5.8-19.1-20.7v-7.7c-.1-15 8.4-20.7 19.1-20.7m8 20.7c0-7.8-2.6-11-8-11s-7.9 3.3-7.9 11v7.7c0 7.8 2.5 11 7.9 11s8-3.3 8-11Zm-31-20.1h-32.1a1.2 1.2 0 0 0-1.3 1.2v6.7a1.2 1.2 0 0 0 1.3 1.2h10.5v37.6a1.3 1.3 0 0 0 1.3 1.3h8.5a1.3 1.3 0 0 0 1.3-1.3V28.7h10.5a1.3 1.3 0 0 0 1.4-1.2v-6.7a1.4 1.4 0 0 0-1.4-1.2m78 0h-32.1a1.2 1.2 0 0 0-1.3 1.2v6.7a1.2 1.2 0 0 0 1.3 1.2h10.5v37.6a1.3 1.3 0 0 0 1.3 1.3h8.5a1.3 1.3 0 0 0 1.3-1.3V28.7h10.5a1.3 1.3 0 0 0 1.4-1.2v-6.7a1.4 1.4 0 0 0-1.4-1.2m44.4 0h-9a1.3 1.3 0 0 0-1.2 1.2l-8.1 37.3c-.1.7-.3 1-.9 1s-.8-.3-.9-1l-8.1-37.3a1.4 1.4 0 0 0-1.3-1.2h-9a1.2 1.2 0 0 0-1.2 1l.1.3 9.6 40.1c1.5 6.2 6.3 7.2 10.7 7.2s9.2-1 10.7-7.2l9.6-40.1a1 1 0 0 1 .1-.3 1 1 0 0 0-1.1-1M289 40.9l-8.3-4.5c-3.5-1.9-4.3-2.7-4.3-4.5 0-2.3 1.4-3.4 5-3.4 4.4 0 11.9.6 13.7.7h.1a1 1 0 0 0 1.1-1.1v-6.5c0-.7-.5-1-1-1.2a76.2 76.2 0 0 0-13.7-1.4c-12.5 0-16.5 5.5-16.5 12.6 0 4.7 1.6 8.8 7.6 12.3l8.9 5.3c3.4 2 4.3 3 4.3 4.9 0 3.1-1.3 4.5-5.8 4.5-2.5 0-9.6-.5-12.3-.8h-.2a1.1 1.1 0 0 0-1.2 1.2v6.3c0 .7.6 1.1 1.3 1.3a50 50 0 0 0 12.2 1.4c13.1 0 17.6-7.3 17.6-14.2.3-5-1.7-9.3-8.5-12.9"/><path class="cls-1" d="M352.8 35.1a5.2 5.2 0 0 1-3.9-1.4 7 7 0 0 1-1.5-5 6.8 6.8 0 0 1 1.8-5 5.5 5.5 0 0 1 3.8-1.4 5.4 5.4 0 0 1 3.7 1.2c1.4 1.3 1.6 3.1 1.6 5.7h-8.7c0 2.8 1.3 4.2 3.7 4.2a20.2 20.2 0 0 0 4.5-.8v1.7a22 22 0 0 1-5 .8Zm0-11.3c-2.3 0-3.1 1.5-3.3 3.8h6.6c-.1-2.5-1-3.8-3.3-3.8ZM361 29.7v-2h5.7v2ZM375 35.1a4.7 4.7 0 0 1-3.6-1.4 7 7 0 0 1-1.6-5 6.5 6.5 0 0 1 2.1-5.2 6.3 6.3 0 0 1 4.1-1.2 25.1 25.1 0 0 1 2.9.2v1.8a20.7 20.7 0 0 0-2.8-.2c-2.9 0-4 1.5-4 4.7 0 2.7 1 4.5 3.4 4.5a13.4 13.4 0 0 0 3.6-.7v1.8a15.2 15.2 0 0 1-4.2.7ZM383.7 33.8c-1.2-1-1.8-2.6-1.8-5s.6-4.2 1.8-5.2a7.2 7.2 0 0 1 8.1 0c1.2 1 1.8 2.7 1.8 5.1s-.6 4.1-1.8 5.1a6.3 6.3 0 0 1-4 1.3 6.2 6.2 0 0 1-4.1-1.3Zm7.7-5c0-3.2-1-4.8-3.7-4.8s-3.6 1.4-3.6 4.7 1.1 4.7 3.7 4.7 3.6-1.4 3.6-4.6ZM414.7 34.8V27c0-2.2-1.1-2.9-2.9-2.9a10.9 10.9 0 0 0-3.6.9 5.4 5.4 0 0 1 .3 2v7.7h-2.1V27c0-2.2-1.2-2.9-2.9-2.9a9.7 9.7 0 0 0-3.3.8v9.8h-2.1v-12h1.8v.6a13.5 13.5 0 0 1 4.3-1 4.3 4.3 0 0 1 3.3 1.2 16.6 16.6 0 0 1 5-1.2 4.3 4.3 0 0 1 3.4 1.3 5 5 0 0 1 1 3.4v7.7ZM439 34.8V27c0-2.2-1.2-2.9-3-2.9a10.8 10.8 0 0 0-3.6.9 5.4 5.4 0 0 1 .3 2v7.7h-2.1V27c0-2.2-1.1-2.9-2.8-2.9a9.7 9.7 0 0 0-3.4.8v9.8h-2.1v-12h1.8v.6a13.5 13.5 0 0 1 4.3-1 4.2 4.2 0 0 1 3.3 1.2 16.6 16.6 0 0 1 5-1.2 4.4 4.4 0 0 1 3.4 1.3 5 5 0 0 1 .9 3.4v7.8ZM450.6 35.1a5.2 5.2 0 0 1-3.8-1.4 7 7 0 0 1-1.6-5 6.8 6.8 0 0 1 1.8-5 5.5 5.5 0 0 1 3.8-1.3 5.4 5.4 0 0 1 3.7 1.2c1.5 1.2 1.6 3 1.6 5.6h-8.7c0 2.8 1.3 4.2 3.7 4.2a20.1 20.1 0 0 0 4.6-.7v1.7a22 22 0 0 1-5 .7Zm0-11.3c-2.3 0-3 1.5-3.2 3.8h6.6c-.1-2.5-1-3.8-3.3-3.8ZM460.6 34.8V22.7h1.8l.1.7a10.9 10.9 0 0 1 4.3-1h.3v1.8h-.5a10.6 10.6 0 0 0-3.8.9v9.7ZM474.2 35.1a4.7 4.7 0 0 1-3.5-1.4 7 7 0 0 1-1.6-5 6.5 6.5 0 0 1 2.1-5.2 6.3 6.3 0 0 1 4-1.2 25.1 25.1 0 0 1 3 .2v1.8a20.8 20.8 0 0 0-2.8-.2c-2.9 0-4 1.5-4 4.7 0 2.8 1 4.5 3.4 4.5a13.4 13.4 0 0 0 3.5-.7v1.8a15.2 15.2 0 0 1-4 .7ZM486.6 35.1a5.2 5.2 0 0 1-3.8-1.4 7 7 0 0 1-1.6-5 6.8 6.8 0 0 1 1.8-5 5.5 5.5 0 0 1 3.8-1.3 5.4 5.4 0 0 1 3.7 1.2c1.4 1.2 1.6 3 1.6 5.6h-8.7c0 2.8 1.3 4.2 3.7 4.2a20.1 20.1 0 0 0 4.5-.7v1.7a22 22 0 0 1-5 .7Zm0-11.3c-2.3 0-3.1 1.5-3.2 3.8h6.5c0-2.5-.9-3.8-3.3-3.8ZM357.3 62.4a6 6 0 0 1-3.8 1.1 8.9 8.9 0 0 1-3.5-.7l-.1.4h-1.2V45.9h1.7v5.7a14 14 0 0 1 4-.9 4.6 4.6 0 0 1 3.4 1.3c1.1 1.2 1.6 2.9 1.6 5.1a6.6 6.6 0 0 1-2.1 5.3ZM354 52.2a10.7 10.7 0 0 0-3.6.8v8.5a7 7 0 0 0 2.9.6c2.8 0 4.4-1.5 4.4-5s-1.5-5-3.6-5ZM361.1 67.8v-1.5a13.5 13.5 0 0 0 1.6.2c1.3 0 2.1-.7 2.7-2.4l.3-1-5-12h1.7l4.2 10.2 3.7-10.2h1.8L367 64.5c-1 2.5-2.2 3.5-4.2 3.5a12 12 0 0 1-1.7-.2ZM380 63.2v-2.8c1.5-1.2 3-2.4 4.6-3.9 2.1-1.9 3-3 3-4.8 0-2.2-1.6-2.7-3.6-2.7a22.4 22.4 0 0 0-3.5.3v-2.7l3.7-.2a8.3 8.3 0 0 1 5 1.2 4.5 4.5 0 0 1 1.7 3.8c0 2.5-1 4-3 5.8l-3.7 3.2v.1h7v2.7ZM404.2 62.3a6.2 6.2 0 0 1-4 1.2 8.9 8.9 0 0 1-3.5-.7l-.1.4h-2.3V45.9h3.2v5.6a13.2 13.2 0 0 1 3.9-.8 4.6 4.6 0 0 1 3.3 1.3c1.2 1.2 1.6 2.9 1.6 5.1a6.5 6.5 0 0 1-2.1 5.2Zm-4-9a8.6 8.6 0 0 0-2.7.7v6.7a5.8 5.8 0 0 0 2.2.5c2.2 0 3.4-1.2 3.4-4s-1.1-3.9-2.8-3.9ZM417.4 63.2v-.7a13.6 13.6 0 0 1-4.4 1 4.6 4.6 0 0 1-3.4-1.3c-1.1-1.1-1.5-2.8-1.5-5a6.6 6.6 0 0 1 2-5.3 6 6 0 0 1 4-1.2 9.4 9.4 0 0 1 3 .5V46h2.5v17.3Zm-.4-2.6v-7.3a6.2 6.2 0 0 0-2.5-.5c-2.4 0-3.7 1.3-3.7 4.3s1.2 4.2 3 4.2a9.6 9.6 0 0 0 3.2-.7ZM423.8 48.5v-2.6h2.8v2.6Zm2.7 14.7h-2.6V51h2.6v12.2ZM438 62a11.8 11.8 0 0 1-3.7.8 4.3 4.3 0 0 1-3.2-1.3c-1-1-1.5-2.6-1.5-4.7a6.1 6.1 0 0 1 2-5 5.7 5.7 0 0 1 3.7-1 8.7 8.7 0 0 1 3.3.6l.1-.3h2v11.3a5.5 5.5 0 0 1-1.4 4.1c-1.2 1.2-3.2 1.5-5 1.5a40 40 0 0 1-3.7-.2v-2.1a31.2 31.2 0 0 0 3.3.1c1.5 0 2.6 0 3.3-.7a3.4 3.4 0 0 0 .8-2.6Zm0-8.7a6.2 6.2 0 0 0-2.3-.5c-2.2 0-3.4 1.2-3.4 3.9s1 3.8 2.8 3.8a8.4 8.4 0 0 0 2.9-.6ZM444.6 48.5v-2.6h2.9v2.6Zm2.7 14.7h-2.5V51h2.6v12.2ZM455.5 63.5a3.2 3.2 0 0 1-3.2-1.9 8.2 8.2 0 0 1-.6-3.4v-5.1h-2v-2h2l.3-3.7h2.3v3.7h3.6v2h-3.6v4.7a9.3 9.3 0 0 0 .2 2.3 1.6 1.6 0 0 0 1.8 1.3 10.4 10.4 0 0 0 1.8-.2v2a12.4 12.4 0 0 1-2.6.3ZM468.7 63.2v-.7a13.8 13.8 0 0 1-4.5 1 4.2 4.2 0 0 1-2.9-1 3.6 3.6 0 0 1-1.1-2.8 3.4 3.4 0 0 1 1.7-3.3 6.5 6.5 0 0 1 3.2-.5 31 31 0 0 1 3.2.2v-.5c0-2.1-.9-2.9-3.6-2.9a27.8 27.8 0 0 0-3.1.2v-2a36 36 0 0 1 3.6-.2c1.7 0 3.4.2 4.5 1.2s1.2 2.3 1.2 4v7.3Zm-.4-5.4-2.9-.1c-2 0-2.7.7-2.7 2a2 2 0 0 0 2.3 2 11.5 11.5 0 0 0 3.3-.8ZM475 63.2V45.9h2.6v17.3Z"/></g></g></svg>